<?xml version="1.0" standalone="no"?>
<!DOCTYPE svg PUBLIC "-//W3C//DTD SVG 20010904//EN"
 "http://www.w3.org/TR/2001/REC-SVG-20010904/DTD/svg10.dtd">
<svg version="1.0" xmlns="http://www.w3.org/2000/svg"
 width="200.000000pt" height="200.000000pt" viewBox="0 0 200.000000 200.000000"
 preserveAspectRatio="xMidYMid meet">
<metadata>
Created by potrace 1.14, written by Peter Selinger 2001-2017
</metadata>
<g transform="translate(0.000000,200.000000) scale(0.100000,-0.100000)"
fill="#000000" stroke="none">
<path d="M311 1278 c-23 -17 -41 -38 -41 -49 0 -14 -7 -19 -28 -19 -16 0 -42
-12 -60 -27 l-33 -28 0 -167 c0 -123 -3 -168 -12 -170 -7 0 -16 -2 -22 -3 -5
-2 -20 -3 -33 -4 -13 0 -21 -5 -18 -10 8 -12 148 -7 211 8 153 37 286 150 361
306 32 66 48 126 22 80 -15 -25 -28 -38 -53 -53 -19 -11 -19 -11 2 -12 l23 0
-23 -27 c-12 -15 -37 -43 -55 -62 l-32 -36 1 75 c0 41 0 80 0 87 -1 15 -63 35
-84 27 -13 -4 -16 3 -19 37 -3 36 -8 45 -35 60 -31 17 -31 17 -72 -13z m7
-370 c-13 -9 -25 -14 -28 -11 -3 2 -6 80 -7 171 l-1 167 26 22 27 23 3 -177
c2 -174 2 -178 -20 -195z m-94 125 c-1 -87 -2 -161 -3 -164 -1 -4 -12 -9 -26
-11 l-25 -5 0 149 c0 143 1 151 23 169 12 10 24 18 27 19 3 0 4 -71 4 -157z
m226 43 c0 -83 -3 -105 -15 -110 -18 -6 -16 -13 -17 89 0 121 1 125 17 125 12
0 15 -18 15 -104z"/>
<path d="M700 935 c0 -128 1 -135 20 -135 19 0 20 7 20 110 l0 110 35 0 35 0
0 -110 c0 -103 1 -110 20 -110 19 0 20 7 20 135 l0 135 -75 0 -75 0 0 -135z"/>
<path d="M890 870 c0 -133 1 -140 20 -140 17 0 20 7 20 41 0 36 2 40 15 29 24
-20 65 -3 80 33 15 35 12 115 -5 147 -13 25 -56 36 -75 20 -10 -9 -15 -9 -15
-1 0 6 -9 11 -20 11 -19 0 -20 -7 -20 -140z m104 59 c11 -32 1 -78 -19 -86
-23 -8 -45 16 -45 49 0 65 45 91 64 37z"/>
<path d="M1102 1003 c-38 -15 -55 -119 -27 -173 41 -80 126 -29 120 73 -4 62
-3 61 -25 85 -20 21 -41 26 -68 15z m52 -74 c17 -50 -21 -116 -45 -78 -10 16
-12 70 -3 94 9 23 37 14 48 -16z"/>
<path d="M1230 905 c0 -98 1 -105 20 -105 18 0 20 7 20 80 l0 80 29 0 c20 0
30 6 34 19 7 27 0 31 -55 31 l-48 0 0 -105z"/>
<path d="M1351 870 c-1 -133 0 -140 19 -140 17 0 20 7 20 40 0 37 1 39 19 28
64 -40 118 94 72 180 -14 27 -56 39 -76 22 -10 -9 -15 -9 -15 -1 0 6 -9 11
-19 11 -18 0 -19 -10 -20 -140z m103 59 c19 -55 -21 -114 -50 -74 -27 36 -9
109 24 103 9 -2 21 -15 26 -29z"/>
<path d="M1552 1001 c-20 -12 -40 -79 -36 -120 7 -69 63 -111 107 -79 28 21
12 49 -23 42 -22 -5 -31 -1 -39 15 -13 23 -13 23 49 25 31 1 35 4 38 31 3 41
-31 95 -60 95 -13 0 -29 -4 -36 -9z m56 -63 c3 -14 -3 -18 -27 -18 -34 0 -34
0 -25 25 8 21 48 16 52 -7z"/>
<path d="M1713 1002 c-45 -29 -53 -144 -13 -187 30 -32 65 -32 86 0 13 20 14
28 4 40 -11 14 -14 13 -25 -2 -16 -22 -43 -11 -51 22 -14 55 24 109 51 72 11
-15 14 -16 25 -2 28 34 -37 82 -77 57z"/>
<path d="M1862 1003 c-18 -7 -38 -53 -41 -92 -4 -76 34 -129 85 -117 25 7 49
40 39 56 -8 13 -35 13 -35 0 0 -16 -37 -11 -44 6 -9 24 -7 77 4 94 8 12 13 13
29 3 21 -13 51 -8 51 8 0 5 -9 18 -20 29 -19 19 -42 24 -68 13z"/>
</g>
</svg>
